Coordinates
version=1
nRows=8
nColumns=36
inDegrees=yes

Units are S.I. units (second, meters, Newtons, ...)
If the header above contains a line with 'inDegrees', this indicates whether rotational values are in degrees (yes) or radians (no).

endheader
time	pelvis_tilt	pelvis_list	pelvis_rotation	pelvis_tx	pelvis_ty	pelvis_tz	hip_flexion_r	hip_adduction_r	hip_rotation_r	knee_angle_r	knee_angle_r_beta	ankle_angle_r	subtalar_angle_r	mtp_angle_r	hip_flexion_l	hip_adduction_l	hip_rotation_l	knee_angle_l	knee_angle_l_beta	ankle_angle_l	subtalar_angle_l	mtp_angle_l	lumbar_extension	lumbar_bending	lumbar_rotation	arm_flex_r	arm_add_r	arm_rot_r	elbow_flex_r	pro_sup_r	arm_flex_l	arm_add_l	arm_rot_l	elbow_flex_l	pro_sup_l
      3.70000000	      0.32028244	      1.49608741	      1.75682444	      0.31324911	      0.96154700	     -0.08877666	     -8.01466062	     -4.23710655	    -15.49219038	      1.80924520	      0.03157729	      2.04319115	    -15.34344060	     -7.49999987	     -4.97282285	     -1.38924960	      2.84986826	      1.51830305	      0.02649939	     -1.46286184	    -11.78241932	     -7.49999987	     -1.77269662	     -1.22119588	      3.96490737	     -5.19455498	     -0.56274600	    -96.53992160	     98.58013501	     25.74224812	     -0.16358462	     -7.31405498	    -61.62861137	     99.40695334	     41.42716924
      3.71666670	      0.34696445	      1.45322320	      1.71969980	      0.31299839	      0.95883967	     -0.08905298	     -8.04700674	     -4.22039490	    -15.48639999	      1.86616365	      0.03257070	      1.94903117	    -15.68937889	     -7.49999987	     -5.02796941	     -1.41989086	      2.67721628	      1.50353195	      0.02624158	     -1.27962821	    -11.57559327	     -7.49999987	     -1.74849694	     -1.19790708	      4.06372842	     -5.19577114	     -0.75016363	    -96.61843545	     98.50904075	     25.52110519	     -0.07374462	     -7.40991427	    -61.47459303	     99.48401982	     41.47115628
      3.73333330	      0.35500938	      1.42736771	      1.67727665	      0.31320031	      0.96148519	     -0.08897406	     -8.05477833	     -4.22365260	    -15.59797677	      1.90736510	      0.03328980	      1.85754621	    -15.79241057	     -7.49999987	     -5.07799549	     -1.43637902	      2.59522844	      1.44010879	      0.02513464	     -1.25950663	    -11.49258642	     -7.49999987	     -1.71639214	     -1.18890747	      4.09579483	     -5.10175761	     -0.84698636	    -96.68254494	     98.39444459	     25.67505604	     -0.00625923	     -7.38517767	    -61.48809547	     99.46426116	     41.46762792
      3.75000000	      0.37774135	      1.41324466	      1.70338033	      0.31300284	      0.96156141	     -0.08912959	     -8.08794636	     -4.23684344	    -15.77279621	      1.90998937	      0.03333560	      1.79917779	    -15.82793191	     -7.49999987	     -5.14199387	     -1.43659470	      2.57734784	      1.35119626	      0.02358282	     -1.28116332	    -11.42443294	     -7.49999987	     -1.73303522	     -1.20185876	      4.13110484	     -5.04484860	     -0.90370635	    -96.79348038	     98.31163651	     25.73023010	      0.10749891	     -7.44029606	    -61.35620587	     99.40993992	     41.39316956
      3.76666670	      0.36441194	      1.39416553	      1.71248860	      0.31302203	      0.96118144	     -0.08905883	     -8.08749847	     -4.23111767	    -15.86862710	      1.88071256	      0.03282463	      1.77879959	    -15.96914433	     -7.49999987	     -5.15900118	     -1.45763337	      2.56377635	      1.24090915	      0.02165795	     -1.25558167	    -11.27032821	     -7.49999987	     -1.69477057	     -1.22454689	      4.12322670	     -4.97129264	     -0.96694628	    -96.86355298	     98.17728453	     25.76301004	      0.29034200	     -7.53540939	    -61.33694408	     99.22333768	     41.58915646
      3.78333330	      0.37082315	      1.35345641	      1.66494087	      0.31286502	      0.96137763	     -0.08911826	     -8.05604076	     -4.20753467	    -15.84582324	      1.85542273	      0.03238324	      1.77961894	    -15.94881951	     -7.49999987	     -5.20570994	     -1.50718197	      2.52093735	      1.12300032	      0.01960005	     -1.32781162	    -11.20225753	     -7.49999987	     -1.70005193	     -1.17865312	      4.26274700	     -5.00022087	     -1.02802367	    -97.02490511	     98.15779377	     25.51305542	      0.50381049	     -7.58486457	    -61.24057851	     99.10157071	     41.48732298
      3.80000000	      0.35840336	      1.34147140	      1.62921098	      0.31286256	      0.95790586	     -0.08901589	     -8.01631560	     -4.22565470	    -15.90401459	      1.83864460	      0.03209040	      1.80183432	    -16.01371054	     -7.49999987	     -5.21926872	     -1.52563550	      2.52663818	      1.02674232	      0.01792003	     -1.32108953	    -11.11114683	     -7.49999987	     -1.66614727	     -1.19521372	      4.23416214	     -4.94067724	     -1.10653677	    -97.08662836	     98.22792396	     25.38107895	      0.65122109	     -7.78807522	    -61.33907332	     99.09862367	     41.90764287
      3.81666670	      0.33899163	      1.32494869	      1.59869386	      0.31282332	      0.95825841	     -0.08909577	     -7.95440417	     -4.22851209	    -15.97189671	      1.85718472	      0.03241399	      1.92695486	    -16.05205178	     -7.49999987	     -5.22447046	     -1.54820972	      2.60638265	      0.95411887	      0.01665252	     -1.23657923	    -11.13848843	     -7.49999987	     -1.64124853	     -1.17365359	      4.30621339	     -4.97814302	     -1.16898976	    -97.11755324	     98.32273357	     25.42503682	      0.83625625	     -7.75690216	    -61.37777187	     99.17640578	     42.00923827
